<svg width="28" height="28" viewBox="0 0 28 28" fill="none" xmlns="http://www.w3.org/2000/svg">
<path d="M25.8125 0H2.1875C0.978833 0 0 0.98 0 2.1875V25.8125C0 27.0212 0.98 28 2.1875 28H25.8125C27.0212 28 28 27.02 28 25.8125V2.1875C28 0.978833 27.02 0 25.8125 0ZM14 21.875C13.3105 21.875 12.635 21.8272 11.9793 21.735C11.3237 22.197 7.53083 24.8605 7.17267 24.9107C7.17267 24.9107 7.02683 24.9678 6.902 24.8943C6.77717 24.8208 6.79933 24.6272 6.79933 24.6272C6.83667 24.3705 7.78283 21.1062 7.95667 20.5053C4.75417 18.9187 2.625 16.1082 2.625 12.9068C2.625 7.95317 7.7175 3.9375 14 3.9375C20.2825 3.9375 25.375 7.95317 25.375 12.9068C25.375 17.8593 20.2825 21.875 14 21.875ZM9.39167 11.5115H8.36733V15.4105C8.36733 15.7558 8.07333 16.037 7.7105 16.037C7.34767 16.037 7.05483 15.757 7.05483 15.4105V11.5115H6.0305C5.86836 11.4995 5.71674 11.4267 5.60609 11.3075C5.49544 11.1884 5.43394 11.0318 5.43394 10.8692C5.43394 10.7067 5.49544 10.5501 5.60609 10.431C5.71674 10.3118 5.86836 10.239 6.0305 10.227H9.3905C9.55264 10.239 9.70426 10.3118 9.81491 10.431C9.92556 10.5501 9.98706 10.7067 9.98706 10.8692C9.98706 11.0318 9.92556 11.1884 9.81491 11.3075C9.70426 11.4267 9.55264 11.4995 9.3905 11.5115H9.39167ZM22.2098 14.9613C22.2622 15.0299 22.3005 15.1083 22.3223 15.1918C22.3441 15.2753 22.3491 15.3624 22.337 15.4478C22.325 15.5331 22.2963 15.6151 22.2524 15.6892C22.2086 15.7633 22.1505 15.828 22.0815 15.8795C21.9682 15.9659 21.8296 16.0126 21.6872 16.0125C21.5853 16.013 21.4848 15.9897 21.3936 15.9443C21.3024 15.8989 21.2231 15.8328 21.1622 15.7512L19.6233 13.713L19.3958 13.9405V15.372C19.3955 15.5459 19.3264 15.7126 19.2035 15.8357C19.0807 15.9588 18.9141 16.0282 18.7402 16.0288C18.566 16.0288 18.3989 15.9596 18.2757 15.8365C18.1525 15.7133 18.0833 15.5462 18.0833 15.372V10.8827C18.0905 10.7134 18.1627 10.5534 18.285 10.4362C18.4073 10.319 18.5702 10.2535 18.7396 10.2535C18.909 10.2535 19.0719 10.319 19.1941 10.4362C19.3164 10.5534 19.3887 10.7134 19.3958 10.8827V12.2943L21.2275 10.4627C21.2753 10.4155 21.332 10.3782 21.3942 10.353C21.4565 10.3277 21.5232 10.3151 21.5903 10.3157C21.7537 10.3157 21.9193 10.3868 22.043 10.5105C22.1556 10.6209 22.224 10.7686 22.2355 10.9258C22.2416 10.999 22.2318 11.0726 22.2068 11.1417C22.1818 11.2107 22.1423 11.2736 22.0908 11.326L20.5952 12.8205L22.211 14.9613H22.2098ZM12.4682 10.8757C12.3573 10.5607 12.0213 10.2363 11.5932 10.227C11.1662 10.2363 10.8302 10.5607 10.7193 10.8745L9.15017 15.0057C8.95067 15.624 9.1245 15.855 9.30533 15.939C9.4361 15.9985 9.57816 16.0292 9.72183 16.0288C9.996 16.0288 10.2048 15.918 10.2678 15.7395L10.5933 14.8878H12.5942L12.9197 15.7395C12.9827 15.918 13.1915 16.0288 13.4657 16.0288C13.6094 16.0287 13.7515 15.9977 13.8822 15.9378C14.063 15.855 14.2368 15.6252 14.0373 15.0045L12.4682 10.8745V10.8757ZM10.9387 13.7258L11.5943 11.8638L12.2488 13.7258H10.9387ZM17.8278 15.3393C17.8242 15.5025 17.7559 15.6576 17.638 15.7704C17.5201 15.8833 17.3622 15.9448 17.199 15.9413H15.0943C15.0134 15.9432 14.933 15.9291 14.8575 15.8998C14.7821 15.8706 14.7131 15.8268 14.6546 15.7709C14.5961 15.715 14.5492 15.6481 14.5165 15.574C14.4839 15.5 14.4662 15.4202 14.4643 15.3393V10.8827C14.4643 10.521 14.7653 10.227 15.1352 10.227C15.505 10.227 15.8048 10.521 15.8048 10.8827V14.7385H17.199C17.5455 14.7385 17.829 15.008 17.829 15.3393H17.8278Z" fill="black"/>
</svg>
