<svg width="35" height="35" viewBox="0 0 35 35" fill="none" xmlns="http://www.w3.org/2000/svg">
<path d="M28.6315 11.6623C28.6504 11.9175 28.6504 12.1713 28.6504 12.425C28.6504 20.1907 22.7398 29.139 11.9379 29.139C8.61002 29.139 5.51835 28.175 2.91669 26.5009C3.38919 26.5548 3.84419 26.5738 4.33565 26.5738C6.97959 26.5802 9.54867 25.6961 11.6288 24.064C10.4029 24.0418 9.21461 23.6374 8.22974 22.9072C7.24487 22.1769 6.51262 21.1574 6.13523 19.9909C6.49835 20.0448 6.86294 20.0813 7.24502 20.0813C7.77148 20.0813 8.30085 20.0084 8.79231 19.8815C7.46196 19.6129 6.26571 18.8918 5.40696 17.8408C4.54822 16.7899 4.07999 15.4739 4.0819 14.1167V14.0438C4.86502 14.4798 5.77356 14.7525 6.73606 14.789C5.92973 14.2532 5.26857 13.5261 4.81156 12.6727C4.35454 11.8192 4.11589 10.8659 4.1169 9.89775C4.1169 8.80692 4.4071 7.8065 4.91606 6.93442C6.3921 8.75007 8.23305 10.2354 10.3197 11.2943C12.4063 12.3532 14.6921 12.962 17.029 13.0813C16.9386 12.6438 16.8831 12.1903 16.8831 11.7353C16.8828 10.9637 17.0344 10.1997 17.3295 9.48685C17.6246 8.77399 18.0573 8.12628 18.6028 7.58073C19.1483 7.03519 19.7961 6.60252 20.5089 6.30745C21.2218 6.01238 21.9858 5.8607 22.7573 5.86108C24.449 5.86108 25.9759 6.56983 27.0492 7.71608C28.3643 7.46178 29.6254 6.9817 30.7767 6.29713C30.3383 7.65457 29.4201 8.80561 28.194 9.53463C29.3603 9.4016 30.5002 9.09487 31.5759 8.62463C30.7725 9.79581 29.777 10.8228 28.6315 11.6623Z" fill="#699BF7"/>
</svg>
